<svg xmlns="http://www.w3.org/2000/svg" width="19.913" height="15.913" viewBox="0 0 19.913 15.913">
    <path id="Path_372"
          data-name="Path 372"
          d="M19.884,17.165,17.7,11.093V2.568A.561.561,0,0,0,17.147,2H2.766a.561.561,0,0,0-.553.568v8.525L.029,17.165a.589.589,0,0,0-.029.18.561.561,0,0,0,.553.568H19.36a.561.561,0,0,0,.553-.568A.589.589,0,0,0,19.884,17.165ZM6.638,16.776,7.375,14.5h5.163l.737,2.273Zm9.957-5.683H3.319V3.137H16.594Z"
          transform="translate(0 -2)"
          fill="#fff"
    />
</svg>
