<svg xmlns="http://www.w3.org/2000/svg" width="20" height="18" viewBox="0 0 20 18">
  <path fill="#FFF" fill-rule="evenodd" d="M19,0 C19.5522847,-1.01453063e-16 20,0.44771525 20,1 L20,17 C20,17.5522847 19.5522847,18 19,18 L1,18 C0.44771525,18 6.76353751e-17,17.5522847 0,17 L0,1 C-6.76353751e-17,0.44771525 0.44771525,1.01453063e-16 1,0 L19,0 Z M10,15.45 C9.42010101,15.45 8.95,15.920101 8.95,16.5 C8.95,17.079899 9.42010101,17.55 10,17.55 C10.2784773,17.55 10.5455489,17.4393753 10.7424621,17.2424621 C10.9393753,17.0455489 11.05,16.7784773 11.05,16.5 C11.05,15.920101 10.579899,15.45 10,15.45 Z M18,2 L2,2 L2,15 L18,15 L18,2 Z"/>
</svg>
