<svg xmlns="http://www.w3.org/2000/svg" width="10" height="18" viewBox="0 0 10 18">
  <path fill="#FFF" d="M9,0 L1,0 C0.44771525,0 0,0.44771525 0,1 L0,17 C0,17.5522847 0.44771525,18 1,18 L9,18 C9.55228475,18 10,17.5522847 10,17 L10,1 C10,0.44771525 9.55228475,0 9,0 Z M4.5,1 L5.5,1 C5.77177628,1.01026655 5.98973345,1.22822372 6,1.5 C5.98973345,1.77177628 5.77177628,1.98973345 5.5,2 L4.5,2 C4.22630921,1.99416918 4.00583082,1.77369079 4,1.5 C4.00633784,1.22652586 4.22652586,1.00633784 4.5,1 Z M5,17.55 C4.42010101,17.55 3.95,17.079899 3.95,16.5 C3.95,15.920101 4.42010101,15.45 5,15.45 C5.57989899,15.45 6.05,15.920101 6.05,16.5 C6.05,16.7784773 5.93937532,17.0455489 5.74246212,17.2424621 C5.54554892,17.4393753 5.27847731,17.55 5,17.55 Z M9,15 L1,15 L1,3 L9,3 L9,15 Z"/>
</svg>
