<?xml version="1.0" encoding="utf-8"?>
<!-- Generator: Adobe Illustrator 23.0.6, SVG Export Plug-In . SVG Version: 6.00 Build 0)  -->
<svg version="1.1" id="Layer_1" xmlns="http://www.w3.org/2000/svg" xmlns:xlink="http://www.w3.org/1999/xlink" x="0px" y="0px"
	 viewBox="0 0 1693.6 1556.5" style="enable-background:new 0 0 1693.6 1556.5;" xml:space="preserve">
<style type="text/css">
	.st0{fill:#A9A6A1;}
</style>
<g>
	<g>
		<path class="st0" d="M508.7,518.4L788.5,891c25.6,25.6,67.2,25.6,92.8,0c25.6-25.6,25.6-67.2,0-92.8L508.7,518.4z"/>
	</g>
	<g>
		<path class="st0" d="M846.8,1556.5c-386,0-700-314-700-700c0-187,72.8-362.8,205-495c17.1-17.1,44.8-17.1,61.9,0
			c17.1,17.1,17.1,44.8,0,61.9C298,539.1,234.3,692.9,234.3,856.5c0,337.7,274.8,612.5,612.5,612.5c163.6,0,317.4-63.7,433.1-179.4
			c115.7-115.7,179.4-269.5,179.4-433.1s-63.7-317.4-179.4-433.1c-105.3-105.3-242.2-167.6-389.4-177.9v261
			c0,24.2-19.6,43.8-43.8,43.8S803,530.7,803,506.5V200.2c0-24.2,19.6-43.8,43.8-43.8c187,0,362.8,72.8,495,205
			c132.2,132.2,205,308,205,495c0,187-72.8,362.8-205,495C1209.6,1483.7,1033.8,1556.5,846.8,1556.5z"/>
	</g>
</g>
</svg>
