<svg xmlns="http://www.w3.org/2000/svg" viewBox="0 0 48 48"><linearGradient id="Bqq06Fq_oS707_EUHK6Nba" x1="10.536" x2="28.613" y1="32.86" y2="5.022" gradientUnits="userSpaceOnUse"><stop offset="0" stop-color="#f44f5a"/><stop offset=".443" stop-color="#ee3d4a"/><stop offset="1" stop-color="#e52030"/></linearGradient><path fill="url(#Bqq06Fq_oS707_EUHK6Nba)" d="M40,17.99c0,1.94-1.1,3.84-2.02,5.09c-0.13,0.17-0.25,0.34-0.37,0.49 c-0.01,0.02-0.03,0.03-0.04,0.05c-0.14,0.17-0.26,0.32-0.37,0.44c-0.2,0.23-0.35,0.39-0.42,0.46c-0.03,0.03-0.04,0.04-0.04,0.04 l-0.32,0.33c-0.02,0.02-0.04,0.03-0.05,0.04c-0.03,0.03-0.04,0.04-0.04,0.04l-9.47,9.56l-0.81,0.82l-0.42,0.42l-3.51,3.54 c-0.9,0.92-2.38,0.92-3.29,0L4.21,24.56c0,0-3.25-3.23-3.25-6.57c0-5.37,4.36-9.84,9.76-9.84c5.39,0,9.76,4.92,9.76,4.92 s4.36-4.92,9.76-4.92C35.63,8.15,40,12.62,40,17.99z"/><path d="M33.25,18.47c-3.24-1.87-7.41-0.73-9.3,2.53c-1.16,2.02-0.38,4.97-0.34,5.09l2.44,9.26l0.81-0.82l-2.29-8.7 c-0.01-0.03-0.7-2.68,0.25-4.33c1.08-1.88,3.05-2.93,5.07-2.93c0.97,0,1.96,0.25,2.86,0.77c2.77,1.6,3.6,5.51,3.61,5.55l0.01,0.04 c0.01-0.01,0.03-0.02,0.05-0.04l0.32-0.33c0,0,0.01-0.01,0.04-0.04c0.07-0.07,0.22-0.23,0.42-0.46 C36.75,22.66,35.57,19.81,33.25,18.47z" opacity=".07"/><path d="M33.5,18.04c-1.1-0.63-2.35-0.97-3.61-0.97c-2.62,0-5.06,1.41-6.37,3.68 c-1.24,2.15-0.49,5.13-0.4,5.47l2.51,9.55l0.42-0.42l0.81-0.82l9.47-9.56c0,0,0.01-0.01,0.04-0.04c0.01-0.01,0.03-0.02,0.05-0.04 l0.32-0.33c0,0,0.01-0.01,0.04-0.04c0.07-0.07,0.22-0.23,0.42-0.46c0.11-0.12,0.23-0.27,0.37-0.44 C37.05,22.1,35.8,19.37,33.5,18.04z" opacity=".05"/><path fill="#eb6773" d="M36.855,24.791c0,0,4.02-1.338,7.025,0.397c3.005,1.735,4.002,5.632,2.272,8.63 c-1.073,1.858-3.926,2.611-3.926,2.611l-12.897,3.518c-0.802,0.219-1.624-0.256-1.836-1.06l-3.402-12.927 c0,0-0.774-2.849,0.298-4.706c1.731-2.998,5.605-4.082,8.61-2.348C36.004,20.64,36.855,24.791,36.855,24.791z"/></svg>