<svg xmlns="http://www.w3.org/2000/svg" width="20" height="18" viewBox="0 0 20 18">
  <path fill="#707070" d="M17.147,-2.30926389e-14 C17.4255045,0.00444364767 17.653784,0.236486834 17.6938171,0.536643741 L17.7,0.639 L17.7,10.229625 L19.884,17.060625 C19.9029507,17.1260225 19.9127345,17.1943408 19.9130896,17.263125 C19.916508,17.5764493 19.7164252,17.8393806 19.4507854,17.8924329 L19.36,17.902125 L0.553,17.902125 C0.243550511,17.8971876 -0.00389273245,17.6112631 -8.95720251e-05,17.263125 L0.00748739103,17.160605 L0.00748739103,17.160605 L0.029,17.060625 L2.213,10.229625 L2.213,0.639 C2.20949654,0.325675672 2.40957522,0.0627444173 2.67521467,0.00969205503 L2.766,-2.30926389e-14 L17.147,-2.30926389e-14 Z M12.538,14.0625 L7.375,14.0625 L6.638,16.623 L13.275,16.619625 L12.538,14.0625 Z M16.594,1.279125 L3.319,1.279125 L3.319,10.229625 L16.595,10.229625 L16.594,1.279125 Z"/>
</svg>
